<mxfile host="app.diagrams.net" agent="Mozilla/5.0 (Windows NT 10.0; Win64; x64) AppleWebKit/537.36 (KHTML, like Gecko) Chrome/135.0.0.0 Safari/537.36" version="26.2.13">
  <diagram name="Page-1" id="64c3da0e-402f-94eb-ee01-a36477274f13">
    <mxGraphModel grid="1" page="1" gridSize="10" guides="1" tooltips="1" connect="1" arrows="1" fold="1" pageScale="1" pageWidth="1169" pageHeight="826" background="none" math="0" shadow="0">
      <root>
        <mxCell id="0" />
        <mxCell id="1" parent="0" />
        <mxCell id="2" value="QUẢN LÍ CỬA HÀNG BÁN LAPTOP" style="whiteSpace=wrap;rounded=1;shadow=1;fillColor=#10739E;strokeColor=none;fontColor=#FFFFFF;fontStyle=1;fontSize=24;movable=0;resizable=0;rotatable=0;deletable=0;editable=0;locked=1;connectable=0;" vertex="1" parent="1">
          <mxGeometry x="1070" y="50" width="450" height="60" as="geometry" />
        </mxCell>
        <mxCell id="3" value="QUẢN LÍ PHIÊN NGƯỜI DÙNG" style="whiteSpace=wrap;rounded=1;fillColor=#F2931E;strokeColor=none;shadow=1;fontColor=#FFFFFF;fontStyle=1;fontSize=14;movable=0;resizable=0;rotatable=0;deletable=0;editable=0;locked=1;connectable=0;" vertex="1" parent="1">
          <mxGeometry x="160" y="169.9999999999998" width="140" height="60" as="geometry" />
        </mxCell>
        <mxCell id="23" value="ĐẮNG NHẬP" style="whiteSpace=wrap;rounded=1;fillColor=#999999;strokeColor=none;shadow=1;fontColor=#FFFFFF;fontStyle=0;movable=0;resizable=0;rotatable=0;deletable=0;editable=0;locked=1;connectable=0;" vertex="1" parent="1">
          <mxGeometry x="159.99999999999994" y="280.0000000000001" width="120" height="60" as="geometry" />
        </mxCell>
        <mxCell id="24" value="ĐẮNG XUẤT" style="whiteSpace=wrap;rounded=1;fillColor=#999999;strokeColor=none;shadow=1;fontColor=#FFFFFF;fontStyle=0;movable=0;resizable=0;rotatable=0;deletable=0;editable=0;locked=1;connectable=0;" vertex="1" parent="1">
          <mxGeometry x="160.0000000000001" y="360.0000000000001" width="120" height="60" as="geometry" />
        </mxCell>
        <mxCell id="103" value="" style="edgeStyle=elbowEdgeStyle;elbow=vertical;rounded=0;fontColor=#000000;endArrow=none;endFill=0;strokeWidth=8;strokeColor=#23445D;entryX=0;entryY=0.5;entryDx=0;entryDy=0;exitX=0;exitY=0.5;exitDx=0;exitDy=0;movable=0;resizable=0;rotatable=0;deletable=0;editable=0;locked=1;connectable=0;" edge="1" parent="1" source="3" target="23">
          <mxGeometry width="100" height="100" relative="1" as="geometry">
            <mxPoint x="20" y="290" as="sourcePoint" />
            <mxPoint x="150" y="290" as="targetPoint" />
            <Array as="points">
              <mxPoint x="140" y="260" />
            </Array>
          </mxGeometry>
        </mxCell>
        <mxCell id="229" value="" style="edgeStyle=elbowEdgeStyle;elbow=vertical;rounded=0;fontColor=#000000;endArrow=none;endFill=0;strokeWidth=8;strokeColor=#23445D;movable=0;resizable=0;rotatable=0;deletable=0;editable=0;locked=1;connectable=0;" edge="1" parent="1" source="2" target="3">
          <mxGeometry width="100" height="100" relative="1" as="geometry">
            <mxPoint x="540" y="140" as="sourcePoint" />
            <mxPoint x="640" y="40" as="targetPoint" />
          </mxGeometry>
        </mxCell>
        <mxCell id="230" value="" style="edgeStyle=elbowEdgeStyle;elbow=vertical;rounded=0;fontColor=#000000;endArrow=none;endFill=0;strokeWidth=8;strokeColor=#23445D;entryX=0.5;entryY=0;entryDx=0;entryDy=0;movable=0;resizable=0;rotatable=0;deletable=0;editable=0;locked=1;connectable=0;" edge="1" parent="1" source="2" target="6xQymBcZwdzct-Tc2yqY-257">
          <mxGeometry width="100" height="100" relative="1" as="geometry">
            <mxPoint x="550" y="150" as="sourcePoint" />
            <mxPoint x="600.0000000000005" y="169.99999999999977" as="targetPoint" />
          </mxGeometry>
        </mxCell>
        <mxCell id="231" value="" style="edgeStyle=elbowEdgeStyle;elbow=vertical;rounded=0;fontColor=#000000;endArrow=none;endFill=0;strokeWidth=8;strokeColor=#23445D;entryX=0.5;entryY=0;entryDx=0;entryDy=0;movable=0;resizable=0;rotatable=0;deletable=0;editable=0;locked=1;connectable=0;" edge="1" parent="1" source="2" target="6xQymBcZwdzct-Tc2yqY-280">
          <mxGeometry width="100" height="100" relative="1" as="geometry">
            <mxPoint x="560" y="160" as="sourcePoint" />
            <mxPoint x="970" y="169.99999999999977" as="targetPoint" />
          </mxGeometry>
        </mxCell>
        <mxCell id="232" value="" style="edgeStyle=elbowEdgeStyle;elbow=vertical;rounded=0;fontColor=#000000;endArrow=none;endFill=0;strokeWidth=8;strokeColor=#23445D;entryX=0.5;entryY=0;entryDx=0;entryDy=0;movable=0;resizable=0;rotatable=0;deletable=0;editable=0;locked=1;connectable=0;" edge="1" parent="1" source="2" target="6xQymBcZwdzct-Tc2yqY-324">
          <mxGeometry width="100" height="100" relative="1" as="geometry">
            <mxPoint x="570" y="170" as="sourcePoint" />
            <mxPoint x="1340" y="169.99999999999977" as="targetPoint" />
          </mxGeometry>
        </mxCell>
        <mxCell id="233" value="" style="edgeStyle=elbowEdgeStyle;elbow=vertical;rounded=0;fontColor=#000000;endArrow=none;endFill=0;strokeWidth=8;strokeColor=#23445D;entryX=0.5;entryY=0;entryDx=0;entryDy=0;movable=0;resizable=0;rotatable=0;deletable=0;editable=0;locked=1;connectable=0;" edge="1" parent="1" source="2" target="6xQymBcZwdzct-Tc2yqY-346">
          <mxGeometry width="100" height="100" relative="1" as="geometry">
            <mxPoint x="580" y="180" as="sourcePoint" />
            <mxPoint x="1710" y="169.99999999999977" as="targetPoint" />
          </mxGeometry>
        </mxCell>
        <mxCell id="234" value="" style="edgeStyle=elbowEdgeStyle;elbow=vertical;rounded=0;fontColor=#000000;endArrow=none;endFill=0;strokeWidth=8;strokeColor=#23445D;entryX=0.5;entryY=0;entryDx=0;entryDy=0;movable=0;resizable=0;rotatable=0;deletable=0;editable=0;locked=1;connectable=0;" edge="1" parent="1" source="2" target="6xQymBcZwdzct-Tc2yqY-368">
          <mxGeometry width="100" height="100" relative="1" as="geometry">
            <mxPoint x="590" y="190" as="sourcePoint" />
            <mxPoint x="2080" y="170" as="targetPoint" />
          </mxGeometry>
        </mxCell>
        <mxCell id="6xQymBcZwdzct-Tc2yqY-239" value="" style="edgeStyle=elbowEdgeStyle;elbow=vertical;rounded=0;fontColor=#000000;endArrow=none;endFill=0;strokeWidth=8;strokeColor=#23445D;entryX=0;entryY=0.5;entryDx=0;entryDy=0;exitX=0;exitY=0.5;exitDx=0;exitDy=0;movable=0;resizable=0;rotatable=0;deletable=0;editable=0;locked=1;connectable=0;" edge="1" parent="1" source="23" target="24">
          <mxGeometry width="100" height="100" relative="1" as="geometry">
            <mxPoint x="80" y="440" as="sourcePoint" />
            <mxPoint x="50" y="660" as="targetPoint" />
            <Array as="points">
              <mxPoint x="140" y="351" />
            </Array>
          </mxGeometry>
        </mxCell>
        <mxCell id="6xQymBcZwdzct-Tc2yqY-254" value="" style="edgeStyle=elbowEdgeStyle;elbow=vertical;rounded=0;fontColor=#000000;endArrow=none;endFill=0;strokeWidth=8;strokeColor=#23445D;entryX=0;entryY=0.5;entryDx=0;entryDy=0;exitX=0;exitY=0.5;exitDx=0;exitDy=0;movable=0;resizable=0;rotatable=0;deletable=0;editable=0;locked=1;connectable=0;" edge="1" parent="1">
          <mxGeometry width="100" height="100" relative="1" as="geometry">
            <mxPoint x="340.00000000000045" y="485" as="sourcePoint" />
            <mxPoint x="340" y="465" as="targetPoint" />
            <Array as="points">
              <mxPoint x="300" y="525" />
            </Array>
          </mxGeometry>
        </mxCell>
        <mxCell id="6xQymBcZwdzct-Tc2yqY-257" value="QUẢN LÍ &#xa;SẢN PHẨM" style="whiteSpace=wrap;rounded=1;fillColor=#F2931E;strokeColor=none;shadow=1;fontColor=#FFFFFF;fontStyle=1;fontSize=14;movable=0;resizable=0;rotatable=0;deletable=0;editable=0;locked=1;connectable=0;" vertex="1" parent="1">
          <mxGeometry x="360" y="170" width="140" height="60" as="geometry" />
        </mxCell>
        <mxCell id="6xQymBcZwdzct-Tc2yqY-258" value="THÊM SẢN PHẨM" style="whiteSpace=wrap;rounded=1;fillColor=#999999;strokeColor=none;shadow=1;fontColor=#FFFFFF;fontStyle=0;movable=0;resizable=0;rotatable=0;deletable=0;editable=0;locked=1;connectable=0;" vertex="1" parent="1">
          <mxGeometry x="360" y="280" width="120" height="60" as="geometry" />
        </mxCell>
        <mxCell id="6xQymBcZwdzct-Tc2yqY-259" value="XÓA SẢN PHẨM" style="whiteSpace=wrap;rounded=1;fillColor=#999999;strokeColor=none;shadow=1;fontColor=#FFFFFF;fontStyle=0;movable=0;resizable=0;rotatable=0;deletable=0;editable=0;locked=1;connectable=0;" vertex="1" parent="1">
          <mxGeometry x="360.0000000000001" y="360.0000000000001" width="120" height="60" as="geometry" />
        </mxCell>
        <mxCell id="6xQymBcZwdzct-Tc2yqY-260" value="SỬA SẢN PHẨM" style="whiteSpace=wrap;rounded=1;fillColor=#999999;strokeColor=none;shadow=1;fontColor=#FFFFFF;fontStyle=0;movable=0;resizable=0;rotatable=0;deletable=0;editable=0;locked=1;connectable=0;" vertex="1" parent="1">
          <mxGeometry x="360" y="440.0000000000001" width="120" height="60" as="geometry" />
        </mxCell>
        <mxCell id="6xQymBcZwdzct-Tc2yqY-261" value="TÌM KIẾM SẢN PHẨM" style="whiteSpace=wrap;rounded=1;fillColor=#999999;strokeColor=none;shadow=1;fontColor=#FFFFFF;fontStyle=0;movable=0;resizable=0;rotatable=0;deletable=0;editable=0;locked=1;connectable=0;" vertex="1" parent="1">
          <mxGeometry x="360.0000000000002" y="520.0000000000001" width="120" height="60" as="geometry" />
        </mxCell>
        <mxCell id="6xQymBcZwdzct-Tc2yqY-262" value="XEM CHI TIẾT&#xa;SẢN PHẨM" style="whiteSpace=wrap;rounded=1;fillColor=#999999;strokeColor=none;shadow=1;fontColor=#FFFFFF;fontStyle=0;movable=0;resizable=0;rotatable=0;deletable=0;editable=0;locked=1;connectable=0;" vertex="1" parent="1">
          <mxGeometry x="360.00000000000034" y="600.0000000000001" width="120" height="60" as="geometry" />
        </mxCell>
        <mxCell id="6xQymBcZwdzct-Tc2yqY-263" value="" style="edgeStyle=elbowEdgeStyle;elbow=vertical;rounded=0;fontColor=#000000;endArrow=none;endFill=0;strokeWidth=8;strokeColor=#23445D;entryX=0;entryY=0.5;entryDx=0;entryDy=0;exitX=0;exitY=0.5;exitDx=0;exitDy=0;movable=0;resizable=0;rotatable=0;deletable=0;editable=0;locked=1;connectable=0;" edge="1" parent="1" source="6xQymBcZwdzct-Tc2yqY-257" target="6xQymBcZwdzct-Tc2yqY-258">
          <mxGeometry width="100" height="100" relative="1" as="geometry">
            <mxPoint x="600" y="305" as="sourcePoint" />
            <mxPoint x="730" y="305" as="targetPoint" />
            <Array as="points">
              <mxPoint x="340" y="250" />
            </Array>
          </mxGeometry>
        </mxCell>
        <mxCell id="6xQymBcZwdzct-Tc2yqY-264" value="" style="edgeStyle=elbowEdgeStyle;elbow=vertical;rounded=0;fontColor=#000000;endArrow=none;endFill=0;strokeWidth=8;strokeColor=#23445D;entryX=0;entryY=0.5;entryDx=0;entryDy=0;exitX=0;exitY=0.5;exitDx=0;exitDy=0;movable=0;resizable=0;rotatable=0;deletable=0;editable=0;locked=1;connectable=0;" edge="1" parent="1" source="6xQymBcZwdzct-Tc2yqY-258" target="6xQymBcZwdzct-Tc2yqY-259">
          <mxGeometry width="100" height="100" relative="1" as="geometry">
            <mxPoint x="660" y="455" as="sourcePoint" />
            <mxPoint x="630" y="675" as="targetPoint" />
            <Array as="points">
              <mxPoint x="340" y="350" />
            </Array>
          </mxGeometry>
        </mxCell>
        <mxCell id="6xQymBcZwdzct-Tc2yqY-265" value="" style="edgeStyle=elbowEdgeStyle;elbow=vertical;rounded=0;fontColor=#000000;endArrow=none;endFill=0;strokeWidth=8;strokeColor=#23445D;entryX=0;entryY=0.5;entryDx=0;entryDy=0;exitX=0;exitY=0.5;exitDx=0;exitDy=0;movable=0;resizable=0;rotatable=0;deletable=0;editable=0;locked=1;connectable=0;" edge="1" parent="1" source="6xQymBcZwdzct-Tc2yqY-260" target="6xQymBcZwdzct-Tc2yqY-259">
          <mxGeometry width="100" height="100" relative="1" as="geometry">
            <mxPoint x="760" y="235" as="sourcePoint" />
            <mxPoint x="730" y="455" as="targetPoint" />
            <Array as="points">
              <mxPoint x="340" y="450" />
            </Array>
          </mxGeometry>
        </mxCell>
        <mxCell id="6xQymBcZwdzct-Tc2yqY-266" value="" style="edgeStyle=elbowEdgeStyle;elbow=vertical;rounded=0;fontColor=#000000;endArrow=none;endFill=0;strokeWidth=8;strokeColor=#23445D;entryX=0;entryY=0.5;entryDx=0;entryDy=0;exitX=0;exitY=0.5;exitDx=0;exitDy=0;movable=0;resizable=0;rotatable=0;deletable=0;editable=0;locked=1;connectable=0;" edge="1" parent="1" source="6xQymBcZwdzct-Tc2yqY-260" target="6xQymBcZwdzct-Tc2yqY-261">
          <mxGeometry width="100" height="100" relative="1" as="geometry">
            <mxPoint x="770" y="245" as="sourcePoint" />
            <mxPoint x="740" y="465" as="targetPoint" />
            <Array as="points">
              <mxPoint x="340" y="500" />
            </Array>
          </mxGeometry>
        </mxCell>
        <mxCell id="6xQymBcZwdzct-Tc2yqY-267" value="" style="edgeStyle=elbowEdgeStyle;elbow=vertical;rounded=0;fontColor=#000000;endArrow=none;endFill=0;strokeWidth=8;strokeColor=#23445D;entryX=0;entryY=0.5;entryDx=0;entryDy=0;exitX=0;exitY=0.5;exitDx=0;exitDy=0;movable=0;resizable=0;rotatable=0;deletable=0;editable=0;locked=1;connectable=0;" edge="1" parent="1" source="6xQymBcZwdzct-Tc2yqY-261" target="6xQymBcZwdzct-Tc2yqY-262">
          <mxGeometry width="100" height="100" relative="1" as="geometry">
            <mxPoint x="780" y="255" as="sourcePoint" />
            <mxPoint x="750" y="475" as="targetPoint" />
            <Array as="points">
              <mxPoint x="340" y="590" />
            </Array>
          </mxGeometry>
        </mxCell>
        <mxCell id="6xQymBcZwdzct-Tc2yqY-269" value="QUẢN LÍ CẤU &#xa;HÌNH SẢN PHẨM" style="whiteSpace=wrap;rounded=1;fillColor=#F2931E;strokeColor=none;shadow=1;fontColor=#FFFFFF;fontStyle=1;fontSize=14;movable=0;resizable=0;rotatable=0;deletable=0;editable=0;locked=1;connectable=0;" vertex="1" parent="1">
          <mxGeometry x="560" y="169.9999999999998" width="140" height="60" as="geometry" />
        </mxCell>
        <mxCell id="6xQymBcZwdzct-Tc2yqY-270" value="QUẢN LÍ &#xa;RAM" style="whiteSpace=wrap;rounded=1;fillColor=#999999;strokeColor=none;shadow=1;fontColor=#FFFFFF;fontStyle=0;movable=0;resizable=0;rotatable=0;deletable=0;editable=0;locked=1;connectable=0;" vertex="1" parent="1">
          <mxGeometry x="560" y="280.0000000000001" width="120" height="60" as="geometry" />
        </mxCell>
        <mxCell id="6xQymBcZwdzct-Tc2yqY-271" value="QUẢN LÍ &#xa;ROM" style="whiteSpace=wrap;rounded=1;fillColor=#999999;strokeColor=none;shadow=1;fontColor=#FFFFFF;fontStyle=0;movable=0;resizable=0;rotatable=0;deletable=0;editable=0;locked=1;connectable=0;" vertex="1" parent="1">
          <mxGeometry x="560.0000000000001" y="360.0000000000001" width="120" height="60" as="geometry" />
        </mxCell>
        <mxCell id="6xQymBcZwdzct-Tc2yqY-272" value="QUẢN LÍ ĐỘ&#xa; PHÂN GIẢI" style="whiteSpace=wrap;rounded=1;fillColor=#999999;strokeColor=none;shadow=1;fontColor=#FFFFFF;fontStyle=0;movable=0;resizable=0;rotatable=0;deletable=0;editable=0;locked=1;connectable=0;" vertex="1" parent="1">
          <mxGeometry x="560" y="440.0000000000001" width="120" height="60" as="geometry" />
        </mxCell>
        <mxCell id="6xQymBcZwdzct-Tc2yqY-273" value="QUẢN LÍ&#xa;CPU" style="whiteSpace=wrap;rounded=1;fillColor=#999999;strokeColor=none;shadow=1;fontColor=#FFFFFF;fontStyle=0;movable=0;resizable=0;rotatable=0;deletable=0;editable=0;locked=1;connectable=0;" vertex="1" parent="1">
          <mxGeometry x="560.0000000000002" y="520.0000000000001" width="120" height="60" as="geometry" />
        </mxCell>
        <mxCell id="6xQymBcZwdzct-Tc2yqY-274" value="QUẢN LÍ &#xa;THƯƠNG HIỆU" style="whiteSpace=wrap;rounded=1;fillColor=#999999;strokeColor=none;shadow=1;fontColor=#FFFFFF;fontStyle=0;movable=0;resizable=0;rotatable=0;deletable=0;editable=0;locked=1;connectable=0;" vertex="1" parent="1">
          <mxGeometry x="560.0000000000003" y="600.0000000000001" width="120" height="60" as="geometry" />
        </mxCell>
        <mxCell id="6xQymBcZwdzct-Tc2yqY-275" value="" style="edgeStyle=elbowEdgeStyle;elbow=vertical;rounded=0;fontColor=#000000;endArrow=none;endFill=0;strokeWidth=8;strokeColor=#23445D;entryX=0;entryY=0.5;entryDx=0;entryDy=0;exitX=0;exitY=0.5;exitDx=0;exitDy=0;movable=0;resizable=0;rotatable=0;deletable=0;editable=0;locked=1;connectable=0;" edge="1" parent="1" source="6xQymBcZwdzct-Tc2yqY-269" target="6xQymBcZwdzct-Tc2yqY-270">
          <mxGeometry width="100" height="100" relative="1" as="geometry">
            <mxPoint x="460" y="290" as="sourcePoint" />
            <mxPoint x="590" y="290" as="targetPoint" />
            <Array as="points">
              <mxPoint x="540" y="250" />
            </Array>
          </mxGeometry>
        </mxCell>
        <mxCell id="6xQymBcZwdzct-Tc2yqY-276" value="" style="edgeStyle=elbowEdgeStyle;elbow=vertical;rounded=0;fontColor=#000000;endArrow=none;endFill=0;strokeWidth=8;strokeColor=#23445D;entryX=0;entryY=0.5;entryDx=0;entryDy=0;exitX=0;exitY=0.5;exitDx=0;exitDy=0;movable=0;resizable=0;rotatable=0;deletable=0;editable=0;locked=1;connectable=0;" edge="1" parent="1" source="6xQymBcZwdzct-Tc2yqY-270" target="6xQymBcZwdzct-Tc2yqY-271">
          <mxGeometry width="100" height="100" relative="1" as="geometry">
            <mxPoint x="520" y="440" as="sourcePoint" />
            <mxPoint x="490" y="660" as="targetPoint" />
            <Array as="points">
              <mxPoint x="540" y="340" />
            </Array>
          </mxGeometry>
        </mxCell>
        <mxCell id="6xQymBcZwdzct-Tc2yqY-277" value="" style="edgeStyle=elbowEdgeStyle;elbow=vertical;rounded=0;fontColor=#000000;endArrow=none;endFill=0;strokeWidth=8;strokeColor=#23445D;entryX=0;entryY=0.5;entryDx=0;entryDy=0;exitX=0;exitY=0.5;exitDx=0;exitDy=0;movable=0;resizable=0;rotatable=0;deletable=0;editable=0;locked=1;connectable=0;" edge="1" parent="1" source="6xQymBcZwdzct-Tc2yqY-272" target="6xQymBcZwdzct-Tc2yqY-271">
          <mxGeometry width="100" height="100" relative="1" as="geometry">
            <mxPoint x="620" y="220" as="sourcePoint" />
            <mxPoint x="590" y="440" as="targetPoint" />
            <Array as="points">
              <mxPoint x="540" y="420" />
            </Array>
          </mxGeometry>
        </mxCell>
        <mxCell id="6xQymBcZwdzct-Tc2yqY-278" value="" style="edgeStyle=elbowEdgeStyle;elbow=vertical;rounded=0;fontColor=#000000;endArrow=none;endFill=0;strokeWidth=8;strokeColor=#23445D;entryX=0;entryY=0.5;entryDx=0;entryDy=0;exitX=0;exitY=0.5;exitDx=0;exitDy=0;movable=0;resizable=0;rotatable=0;deletable=0;editable=0;locked=1;connectable=0;" edge="1" parent="1" source="6xQymBcZwdzct-Tc2yqY-272" target="6xQymBcZwdzct-Tc2yqY-273">
          <mxGeometry width="100" height="100" relative="1" as="geometry">
            <mxPoint x="630" y="230" as="sourcePoint" />
            <mxPoint x="600" y="450" as="targetPoint" />
            <Array as="points">
              <mxPoint x="540" y="510" />
            </Array>
          </mxGeometry>
        </mxCell>
        <mxCell id="6xQymBcZwdzct-Tc2yqY-279" value="" style="edgeStyle=elbowEdgeStyle;elbow=vertical;rounded=0;fontColor=#000000;endArrow=none;endFill=0;strokeWidth=8;strokeColor=#23445D;entryX=0;entryY=0.5;entryDx=0;entryDy=0;exitX=0;exitY=0.5;exitDx=0;exitDy=0;movable=0;resizable=0;rotatable=0;deletable=0;editable=0;locked=1;connectable=0;" edge="1" parent="1" source="6xQymBcZwdzct-Tc2yqY-273" target="6xQymBcZwdzct-Tc2yqY-274">
          <mxGeometry width="100" height="100" relative="1" as="geometry">
            <mxPoint x="640" y="240" as="sourcePoint" />
            <mxPoint x="610" y="460" as="targetPoint" />
            <Array as="points">
              <mxPoint x="540" y="600" />
            </Array>
          </mxGeometry>
        </mxCell>
        <mxCell id="6xQymBcZwdzct-Tc2yqY-280" value="QUẢN LÍ &#xa;KHÁCH HÀNG" style="whiteSpace=wrap;rounded=1;fillColor=#F2931E;strokeColor=none;shadow=1;fontColor=#FFFFFF;fontStyle=1;fontSize=14;movable=0;resizable=0;rotatable=0;deletable=0;editable=0;locked=1;connectable=0;" vertex="1" parent="1">
          <mxGeometry x="760" y="169.9999999999998" width="140" height="60" as="geometry" />
        </mxCell>
        <mxCell id="6xQymBcZwdzct-Tc2yqY-281" value="THÊM KHÁCH HÀNG" style="whiteSpace=wrap;rounded=1;fillColor=#999999;strokeColor=none;shadow=1;fontColor=#FFFFFF;fontStyle=0;movable=0;resizable=0;rotatable=0;deletable=0;editable=0;locked=1;connectable=0;" vertex="1" parent="1">
          <mxGeometry x="760" y="280.0000000000001" width="120" height="60" as="geometry" />
        </mxCell>
        <mxCell id="6xQymBcZwdzct-Tc2yqY-282" value="XÓA KHÁCH HÀNG" style="whiteSpace=wrap;rounded=1;fillColor=#999999;strokeColor=none;shadow=1;fontColor=#FFFFFF;fontStyle=0;movable=0;resizable=0;rotatable=0;deletable=0;editable=0;locked=1;connectable=0;" vertex="1" parent="1">
          <mxGeometry x="760.0000000000001" y="360.0000000000001" width="120" height="60" as="geometry" />
        </mxCell>
        <mxCell id="6xQymBcZwdzct-Tc2yqY-283" value="SỬA KHÁCH HÀNG" style="whiteSpace=wrap;rounded=1;fillColor=#999999;strokeColor=none;shadow=1;fontColor=#FFFFFF;fontStyle=0;movable=0;resizable=0;rotatable=0;deletable=0;editable=0;locked=1;connectable=0;" vertex="1" parent="1">
          <mxGeometry x="760" y="440.0000000000001" width="120" height="60" as="geometry" />
        </mxCell>
        <mxCell id="6xQymBcZwdzct-Tc2yqY-284" value="TÌM KIẾM KHÁCH HÀNG" style="whiteSpace=wrap;rounded=1;fillColor=#999999;strokeColor=none;shadow=1;fontColor=#FFFFFF;fontStyle=0;movable=0;resizable=0;rotatable=0;deletable=0;editable=0;locked=1;connectable=0;" vertex="1" parent="1">
          <mxGeometry x="760.0000000000002" y="520.0000000000001" width="120" height="60" as="geometry" />
        </mxCell>
        <mxCell id="6xQymBcZwdzct-Tc2yqY-285" value="XEM THÔNG TIN KHÁCH HÀNG" style="whiteSpace=wrap;rounded=1;fillColor=#999999;strokeColor=none;shadow=1;fontColor=#FFFFFF;fontStyle=0;movable=0;resizable=0;rotatable=0;deletable=0;editable=0;locked=1;connectable=0;" vertex="1" parent="1">
          <mxGeometry x="760.0000000000003" y="600.0000000000001" width="120" height="60" as="geometry" />
        </mxCell>
        <mxCell id="6xQymBcZwdzct-Tc2yqY-286" value="" style="edgeStyle=elbowEdgeStyle;elbow=vertical;rounded=0;fontColor=#000000;endArrow=none;endFill=0;strokeWidth=8;strokeColor=#23445D;entryX=0;entryY=0.5;entryDx=0;entryDy=0;exitX=0;exitY=0.5;exitDx=0;exitDy=0;movable=0;resizable=0;rotatable=0;deletable=0;editable=0;locked=1;connectable=0;" edge="1" parent="1" source="6xQymBcZwdzct-Tc2yqY-280" target="6xQymBcZwdzct-Tc2yqY-281">
          <mxGeometry width="100" height="100" relative="1" as="geometry">
            <mxPoint x="680" y="290" as="sourcePoint" />
            <mxPoint x="810" y="290" as="targetPoint" />
            <Array as="points">
              <mxPoint x="740" y="250" />
            </Array>
          </mxGeometry>
        </mxCell>
        <mxCell id="6xQymBcZwdzct-Tc2yqY-287" value="" style="edgeStyle=elbowEdgeStyle;elbow=vertical;rounded=0;fontColor=#000000;endArrow=none;endFill=0;strokeWidth=8;strokeColor=#23445D;entryX=0;entryY=0.5;entryDx=0;entryDy=0;exitX=0;exitY=0.5;exitDx=0;exitDy=0;movable=0;resizable=0;rotatable=0;deletable=0;editable=0;locked=1;connectable=0;" edge="1" parent="1" source="6xQymBcZwdzct-Tc2yqY-281" target="6xQymBcZwdzct-Tc2yqY-282">
          <mxGeometry width="100" height="100" relative="1" as="geometry">
            <mxPoint x="740" y="440" as="sourcePoint" />
            <mxPoint x="710" y="660" as="targetPoint" />
            <Array as="points">
              <mxPoint x="740" y="340" />
            </Array>
          </mxGeometry>
        </mxCell>
        <mxCell id="6xQymBcZwdzct-Tc2yqY-288" value="" style="edgeStyle=elbowEdgeStyle;elbow=vertical;rounded=0;fontColor=#000000;endArrow=none;endFill=0;strokeWidth=8;strokeColor=#23445D;entryX=0;entryY=0.5;entryDx=0;entryDy=0;exitX=0;exitY=0.5;exitDx=0;exitDy=0;movable=0;resizable=0;rotatable=0;deletable=0;editable=0;locked=1;connectable=0;" edge="1" parent="1" source="6xQymBcZwdzct-Tc2yqY-283" target="6xQymBcZwdzct-Tc2yqY-282">
          <mxGeometry width="100" height="100" relative="1" as="geometry">
            <mxPoint x="840" y="220" as="sourcePoint" />
            <mxPoint x="810" y="440" as="targetPoint" />
            <Array as="points">
              <mxPoint x="740" y="430" />
            </Array>
          </mxGeometry>
        </mxCell>
        <mxCell id="6xQymBcZwdzct-Tc2yqY-289" value="" style="edgeStyle=elbowEdgeStyle;elbow=vertical;rounded=0;fontColor=#000000;endArrow=none;endFill=0;strokeWidth=8;strokeColor=#23445D;entryX=0;entryY=0.5;entryDx=0;entryDy=0;exitX=0;exitY=0.5;exitDx=0;exitDy=0;movable=0;resizable=0;rotatable=0;deletable=0;editable=0;locked=1;connectable=0;" edge="1" parent="1" source="6xQymBcZwdzct-Tc2yqY-283" target="6xQymBcZwdzct-Tc2yqY-284">
          <mxGeometry width="100" height="100" relative="1" as="geometry">
            <mxPoint x="850" y="230" as="sourcePoint" />
            <mxPoint x="820" y="450" as="targetPoint" />
            <Array as="points">
              <mxPoint x="740" y="510" />
            </Array>
          </mxGeometry>
        </mxCell>
        <mxCell id="6xQymBcZwdzct-Tc2yqY-290" value="" style="edgeStyle=elbowEdgeStyle;elbow=vertical;rounded=0;fontColor=#000000;endArrow=none;endFill=0;strokeWidth=8;strokeColor=#23445D;entryX=0;entryY=0.5;entryDx=0;entryDy=0;exitX=0;exitY=0.5;exitDx=0;exitDy=0;movable=0;resizable=0;rotatable=0;deletable=0;editable=0;locked=1;connectable=0;" edge="1" parent="1" source="6xQymBcZwdzct-Tc2yqY-284" target="6xQymBcZwdzct-Tc2yqY-285">
          <mxGeometry width="100" height="100" relative="1" as="geometry">
            <mxPoint x="860" y="240" as="sourcePoint" />
            <mxPoint x="830" y="460" as="targetPoint" />
            <Array as="points">
              <mxPoint x="740" y="590" />
            </Array>
          </mxGeometry>
        </mxCell>
        <mxCell id="6xQymBcZwdzct-Tc2yqY-291" value="QUẢN LÍ &#xa;NHÂN VIÊN" style="whiteSpace=wrap;rounded=1;fillColor=#F2931E;strokeColor=none;shadow=1;fontColor=#FFFFFF;fontStyle=1;fontSize=14;movable=0;resizable=0;rotatable=0;deletable=0;editable=0;locked=1;connectable=0;" vertex="1" parent="1">
          <mxGeometry x="960" y="169.9999999999998" width="140" height="60" as="geometry" />
        </mxCell>
        <mxCell id="6xQymBcZwdzct-Tc2yqY-292" value="THÊM NHÂN VIÊN" style="whiteSpace=wrap;rounded=1;fillColor=#999999;strokeColor=none;shadow=1;fontColor=#FFFFFF;fontStyle=0;movable=0;resizable=0;rotatable=0;deletable=0;editable=0;locked=1;connectable=0;" vertex="1" parent="1">
          <mxGeometry x="960" y="280.0000000000001" width="120" height="60" as="geometry" />
        </mxCell>
        <mxCell id="6xQymBcZwdzct-Tc2yqY-293" value="XÓA NHÂN VIÊN" style="whiteSpace=wrap;rounded=1;fillColor=#999999;strokeColor=none;shadow=1;fontColor=#FFFFFF;fontStyle=0;movable=0;resizable=0;rotatable=0;deletable=0;editable=0;locked=1;connectable=0;" vertex="1" parent="1">
          <mxGeometry x="960" y="360.0000000000001" width="120" height="60" as="geometry" />
        </mxCell>
        <mxCell id="6xQymBcZwdzct-Tc2yqY-294" value="SỬA NHÂN VIÊN" style="whiteSpace=wrap;rounded=1;fillColor=#999999;strokeColor=none;shadow=1;fontColor=#FFFFFF;fontStyle=0;movable=0;resizable=0;rotatable=0;deletable=0;editable=0;locked=1;connectable=0;" vertex="1" parent="1">
          <mxGeometry x="960" y="440.0000000000001" width="120" height="60" as="geometry" />
        </mxCell>
        <mxCell id="6xQymBcZwdzct-Tc2yqY-295" value="TÌM KIẾM NHÂN VIÊN" style="whiteSpace=wrap;rounded=1;fillColor=#999999;strokeColor=none;shadow=1;fontColor=#FFFFFF;fontStyle=0;movable=0;resizable=0;rotatable=0;deletable=0;editable=0;locked=1;connectable=0;" vertex="1" parent="1">
          <mxGeometry x="960.0000000000002" y="520.0000000000001" width="120" height="60" as="geometry" />
        </mxCell>
        <mxCell id="6xQymBcZwdzct-Tc2yqY-296" value="XEM THÔNG TIN&#xa;NHÂN VIÊN" style="whiteSpace=wrap;rounded=1;fillColor=#999999;strokeColor=none;shadow=1;fontColor=#FFFFFF;fontStyle=0;movable=0;resizable=0;rotatable=0;deletable=0;editable=0;locked=1;connectable=0;" vertex="1" parent="1">
          <mxGeometry x="960.0000000000005" y="600.0000000000001" width="120" height="60" as="geometry" />
        </mxCell>
        <mxCell id="6xQymBcZwdzct-Tc2yqY-297" value="" style="edgeStyle=elbowEdgeStyle;elbow=vertical;rounded=0;fontColor=#000000;endArrow=none;endFill=0;strokeWidth=8;strokeColor=#23445D;entryX=0;entryY=0.5;entryDx=0;entryDy=0;exitX=0;exitY=0.5;exitDx=0;exitDy=0;movable=0;resizable=0;rotatable=0;deletable=0;editable=0;locked=1;connectable=0;" edge="1" parent="1" source="6xQymBcZwdzct-Tc2yqY-291" target="6xQymBcZwdzct-Tc2yqY-292">
          <mxGeometry width="100" height="100" relative="1" as="geometry">
            <mxPoint x="900" y="290" as="sourcePoint" />
            <mxPoint x="1030" y="290" as="targetPoint" />
            <Array as="points">
              <mxPoint x="940" y="250" />
            </Array>
          </mxGeometry>
        </mxCell>
        <mxCell id="6xQymBcZwdzct-Tc2yqY-298" value="" style="edgeStyle=elbowEdgeStyle;elbow=vertical;rounded=0;fontColor=#000000;endArrow=none;endFill=0;strokeWidth=8;strokeColor=#23445D;entryX=0;entryY=0.5;entryDx=0;entryDy=0;exitX=0;exitY=0.5;exitDx=0;exitDy=0;movable=0;resizable=0;rotatable=0;deletable=0;editable=0;locked=1;connectable=0;" edge="1" parent="1" source="6xQymBcZwdzct-Tc2yqY-292" target="6xQymBcZwdzct-Tc2yqY-293">
          <mxGeometry width="100" height="100" relative="1" as="geometry">
            <mxPoint x="960" y="440" as="sourcePoint" />
            <mxPoint x="930" y="660" as="targetPoint" />
            <Array as="points">
              <mxPoint x="940" y="350" />
            </Array>
          </mxGeometry>
        </mxCell>
        <mxCell id="6xQymBcZwdzct-Tc2yqY-299" value="" style="edgeStyle=elbowEdgeStyle;elbow=vertical;rounded=0;fontColor=#000000;endArrow=none;endFill=0;strokeWidth=8;strokeColor=#23445D;entryX=0;entryY=0.5;entryDx=0;entryDy=0;exitX=0;exitY=0.5;exitDx=0;exitDy=0;movable=0;resizable=0;rotatable=0;deletable=0;editable=0;locked=1;connectable=0;" edge="1" parent="1" source="6xQymBcZwdzct-Tc2yqY-294" target="6xQymBcZwdzct-Tc2yqY-293">
          <mxGeometry width="100" height="100" relative="1" as="geometry">
            <mxPoint x="1060" y="220" as="sourcePoint" />
            <mxPoint x="1030" y="440" as="targetPoint" />
            <Array as="points">
              <mxPoint x="940" y="420" />
            </Array>
          </mxGeometry>
        </mxCell>
        <mxCell id="6xQymBcZwdzct-Tc2yqY-300" value="" style="edgeStyle=elbowEdgeStyle;elbow=vertical;rounded=0;fontColor=#000000;endArrow=none;endFill=0;strokeWidth=8;strokeColor=#23445D;entryX=0;entryY=0.5;entryDx=0;entryDy=0;exitX=0;exitY=0.5;exitDx=0;exitDy=0;movable=0;resizable=0;rotatable=0;deletable=0;editable=0;locked=1;connectable=0;" edge="1" parent="1" source="6xQymBcZwdzct-Tc2yqY-294" target="6xQymBcZwdzct-Tc2yqY-295">
          <mxGeometry width="100" height="100" relative="1" as="geometry">
            <mxPoint x="1070" y="230" as="sourcePoint" />
            <mxPoint x="1040" y="450" as="targetPoint" />
            <Array as="points">
              <mxPoint x="940" y="500" />
            </Array>
          </mxGeometry>
        </mxCell>
        <mxCell id="6xQymBcZwdzct-Tc2yqY-301" value="" style="edgeStyle=elbowEdgeStyle;elbow=vertical;rounded=0;fontColor=#000000;endArrow=none;endFill=0;strokeWidth=8;strokeColor=#23445D;entryX=0;entryY=0.5;entryDx=0;entryDy=0;exitX=0;exitY=0.5;exitDx=0;exitDy=0;movable=0;resizable=0;rotatable=0;deletable=0;editable=0;locked=1;connectable=0;" edge="1" parent="1" source="6xQymBcZwdzct-Tc2yqY-295" target="6xQymBcZwdzct-Tc2yqY-296">
          <mxGeometry width="100" height="100" relative="1" as="geometry">
            <mxPoint x="1080" y="240" as="sourcePoint" />
            <mxPoint x="1050" y="460" as="targetPoint" />
            <Array as="points">
              <mxPoint x="940" y="580" />
            </Array>
          </mxGeometry>
        </mxCell>
        <mxCell id="6xQymBcZwdzct-Tc2yqY-324" value="QUẢN LÍ TÀI &#xa;KHOẢN NHÂN VIÊN" style="whiteSpace=wrap;rounded=1;fillColor=#F2931E;strokeColor=none;shadow=1;fontColor=#FFFFFF;fontStyle=1;fontSize=14;movable=0;resizable=0;rotatable=0;deletable=0;editable=0;locked=1;connectable=0;" vertex="1" parent="1">
          <mxGeometry x="1159" y="169.9999999999998" width="140" height="60" as="geometry" />
        </mxCell>
        <mxCell id="6xQymBcZwdzct-Tc2yqY-325" value="THÊM TÀI KHOẢN" style="whiteSpace=wrap;rounded=1;fillColor=#999999;strokeColor=none;shadow=1;fontColor=#FFFFFF;fontStyle=0;movable=0;resizable=0;rotatable=0;deletable=0;editable=0;locked=1;connectable=0;" vertex="1" parent="1">
          <mxGeometry x="1159" y="280.0000000000001" width="120" height="60" as="geometry" />
        </mxCell>
        <mxCell id="6xQymBcZwdzct-Tc2yqY-326" value="XÓA TÀI KHOẢN" style="whiteSpace=wrap;rounded=1;fillColor=#999999;strokeColor=none;shadow=1;fontColor=#FFFFFF;fontStyle=0;movable=0;resizable=0;rotatable=0;deletable=0;editable=0;locked=1;connectable=0;" vertex="1" parent="1">
          <mxGeometry x="1159" y="360.0000000000001" width="120" height="60" as="geometry" />
        </mxCell>
        <mxCell id="6xQymBcZwdzct-Tc2yqY-327" value="SỬA TÀI KHOẢN" style="whiteSpace=wrap;rounded=1;fillColor=#999999;strokeColor=none;shadow=1;fontColor=#FFFFFF;fontStyle=0;movable=0;resizable=0;rotatable=0;deletable=0;editable=0;locked=1;connectable=0;" vertex="1" parent="1">
          <mxGeometry x="1159" y="440.0000000000001" width="120" height="60" as="geometry" />
        </mxCell>
        <mxCell id="6xQymBcZwdzct-Tc2yqY-328" value="TÌM  KIẾM TÀI KHOẢN" style="whiteSpace=wrap;rounded=1;fillColor=#999999;strokeColor=none;shadow=1;fontColor=#FFFFFF;fontStyle=0;movable=0;resizable=0;rotatable=0;deletable=0;editable=0;locked=1;connectable=0;" vertex="1" parent="1">
          <mxGeometry x="1159.0000000000002" y="520.0000000000001" width="120" height="60" as="geometry" />
        </mxCell>
        <mxCell id="6xQymBcZwdzct-Tc2yqY-329" value="XEM THÔNG TIN&#xa;TÀI KHOẢN" style="whiteSpace=wrap;rounded=1;fillColor=#999999;strokeColor=none;shadow=1;fontColor=#FFFFFF;fontStyle=0;movable=0;resizable=0;rotatable=0;deletable=0;editable=0;locked=1;connectable=0;" vertex="1" parent="1">
          <mxGeometry x="1159.0000000000005" y="600.0000000000001" width="120" height="60" as="geometry" />
        </mxCell>
        <mxCell id="6xQymBcZwdzct-Tc2yqY-330" value="" style="edgeStyle=elbowEdgeStyle;elbow=vertical;rounded=0;fontColor=#000000;endArrow=none;endFill=0;strokeWidth=8;strokeColor=#23445D;entryX=0;entryY=0.5;entryDx=0;entryDy=0;exitX=0;exitY=0.5;exitDx=0;exitDy=0;movable=0;resizable=0;rotatable=0;deletable=0;editable=0;locked=1;connectable=0;" edge="1" parent="1" source="6xQymBcZwdzct-Tc2yqY-324" target="6xQymBcZwdzct-Tc2yqY-325">
          <mxGeometry width="100" height="100" relative="1" as="geometry">
            <mxPoint x="1120" y="290" as="sourcePoint" />
            <mxPoint x="1250" y="290" as="targetPoint" />
            <Array as="points">
              <mxPoint x="1140" y="260" />
            </Array>
          </mxGeometry>
        </mxCell>
        <mxCell id="6xQymBcZwdzct-Tc2yqY-331" value="" style="edgeStyle=elbowEdgeStyle;elbow=vertical;rounded=0;fontColor=#000000;endArrow=none;endFill=0;strokeWidth=8;strokeColor=#23445D;entryX=0;entryY=0.5;entryDx=0;entryDy=0;exitX=0;exitY=0.5;exitDx=0;exitDy=0;movable=0;resizable=0;rotatable=0;deletable=0;editable=0;locked=1;connectable=0;" edge="1" parent="1" source="6xQymBcZwdzct-Tc2yqY-325" target="6xQymBcZwdzct-Tc2yqY-326">
          <mxGeometry width="100" height="100" relative="1" as="geometry">
            <mxPoint x="1180" y="440" as="sourcePoint" />
            <mxPoint x="1150" y="660" as="targetPoint" />
            <Array as="points">
              <mxPoint x="1140" y="350" />
            </Array>
          </mxGeometry>
        </mxCell>
        <mxCell id="6xQymBcZwdzct-Tc2yqY-332" value="" style="edgeStyle=elbowEdgeStyle;elbow=vertical;rounded=0;fontColor=#000000;endArrow=none;endFill=0;strokeWidth=8;strokeColor=#23445D;entryX=0;entryY=0.5;entryDx=0;entryDy=0;exitX=0;exitY=0.5;exitDx=0;exitDy=0;movable=0;resizable=0;rotatable=0;deletable=0;editable=0;locked=1;connectable=0;" edge="1" parent="1" source="6xQymBcZwdzct-Tc2yqY-327" target="6xQymBcZwdzct-Tc2yqY-326">
          <mxGeometry width="100" height="100" relative="1" as="geometry">
            <mxPoint x="1280" y="220" as="sourcePoint" />
            <mxPoint x="1250" y="440" as="targetPoint" />
            <Array as="points">
              <mxPoint x="1140" y="430" />
            </Array>
          </mxGeometry>
        </mxCell>
        <mxCell id="6xQymBcZwdzct-Tc2yqY-333" value="" style="edgeStyle=elbowEdgeStyle;elbow=vertical;rounded=0;fontColor=#000000;endArrow=none;endFill=0;strokeWidth=8;strokeColor=#23445D;entryX=0;entryY=0.5;entryDx=0;entryDy=0;exitX=0;exitY=0.5;exitDx=0;exitDy=0;movable=0;resizable=0;rotatable=0;deletable=0;editable=0;locked=1;connectable=0;" edge="1" parent="1" source="6xQymBcZwdzct-Tc2yqY-327" target="6xQymBcZwdzct-Tc2yqY-328">
          <mxGeometry width="100" height="100" relative="1" as="geometry">
            <mxPoint x="1290" y="230" as="sourcePoint" />
            <mxPoint x="1260" y="450" as="targetPoint" />
            <Array as="points">
              <mxPoint x="1140" y="500" />
            </Array>
          </mxGeometry>
        </mxCell>
        <mxCell id="6xQymBcZwdzct-Tc2yqY-334" value="" style="edgeStyle=elbowEdgeStyle;elbow=vertical;rounded=0;fontColor=#000000;endArrow=none;endFill=0;strokeWidth=8;strokeColor=#23445D;entryX=0;entryY=0.5;entryDx=0;entryDy=0;exitX=0;exitY=0.5;exitDx=0;exitDy=0;movable=0;resizable=0;rotatable=0;deletable=0;editable=0;locked=1;connectable=0;" edge="1" parent="1" source="6xQymBcZwdzct-Tc2yqY-328" target="6xQymBcZwdzct-Tc2yqY-329">
          <mxGeometry width="100" height="100" relative="1" as="geometry">
            <mxPoint x="1300" y="240" as="sourcePoint" />
            <mxPoint x="1270" y="460" as="targetPoint" />
            <Array as="points">
              <mxPoint x="1140" y="580" />
            </Array>
          </mxGeometry>
        </mxCell>
        <mxCell id="6xQymBcZwdzct-Tc2yqY-335" value="QUẢN LÍ NHÀ&#xa;CUNG CẤP" style="whiteSpace=wrap;rounded=1;fillColor=#F2931E;strokeColor=none;shadow=1;fontColor=#FFFFFF;fontStyle=1;fontSize=14;movable=0;resizable=0;rotatable=0;deletable=0;editable=0;locked=1;connectable=0;" vertex="1" parent="1">
          <mxGeometry x="1360" y="169.99999999999977" width="140" height="60" as="geometry" />
        </mxCell>
        <mxCell id="6xQymBcZwdzct-Tc2yqY-336" value="THÊM NHÀ&#xa;CUNG CẤP" style="whiteSpace=wrap;rounded=1;fillColor=#999999;strokeColor=none;shadow=1;fontColor=#FFFFFF;fontStyle=0;movable=0;resizable=0;rotatable=0;deletable=0;editable=0;locked=1;connectable=0;" vertex="1" parent="1">
          <mxGeometry x="1360" y="280.0000000000001" width="120" height="60" as="geometry" />
        </mxCell>
        <mxCell id="6xQymBcZwdzct-Tc2yqY-337" value="XÓA NHÀ&#xa;CUNG CẤP" style="whiteSpace=wrap;rounded=1;fillColor=#999999;strokeColor=none;shadow=1;fontColor=#FFFFFF;fontStyle=0;movable=0;resizable=0;rotatable=0;deletable=0;editable=0;locked=1;connectable=0;" vertex="1" parent="1">
          <mxGeometry x="1360" y="360.0000000000001" width="120" height="60" as="geometry" />
        </mxCell>
        <mxCell id="6xQymBcZwdzct-Tc2yqY-338" value="SỬA NHÀ&#xa;CUNG CẤP" style="whiteSpace=wrap;rounded=1;fillColor=#999999;strokeColor=none;shadow=1;fontColor=#FFFFFF;fontStyle=0;movable=0;resizable=0;rotatable=0;deletable=0;editable=0;locked=1;connectable=0;" vertex="1" parent="1">
          <mxGeometry x="1360" y="440.0000000000001" width="120" height="60" as="geometry" />
        </mxCell>
        <mxCell id="6xQymBcZwdzct-Tc2yqY-339" value="TÌM KIẾM NHÀ&#xa;CUNG CẤP" style="whiteSpace=wrap;rounded=1;fillColor=#999999;strokeColor=none;shadow=1;fontColor=#FFFFFF;fontStyle=0;movable=0;resizable=0;rotatable=0;deletable=0;editable=0;locked=1;connectable=0;" vertex="1" parent="1">
          <mxGeometry x="1360.0000000000002" y="520.0000000000001" width="120" height="60" as="geometry" />
        </mxCell>
        <mxCell id="6xQymBcZwdzct-Tc2yqY-340" value="XEM THÔNG TIN&#xa;NHÀ CUNG CẤP" style="whiteSpace=wrap;rounded=1;fillColor=#999999;strokeColor=none;shadow=1;fontColor=#FFFFFF;fontStyle=0;movable=0;resizable=0;rotatable=0;deletable=0;editable=0;locked=1;connectable=0;" vertex="1" parent="1">
          <mxGeometry x="1360.0000000000005" y="600.0000000000001" width="120" height="60" as="geometry" />
        </mxCell>
        <mxCell id="6xQymBcZwdzct-Tc2yqY-341" value="" style="edgeStyle=elbowEdgeStyle;elbow=vertical;rounded=0;fontColor=#000000;endArrow=none;endFill=0;strokeWidth=8;strokeColor=#23445D;entryX=0;entryY=0.5;entryDx=0;entryDy=0;exitX=0;exitY=0.5;exitDx=0;exitDy=0;movable=0;resizable=0;rotatable=0;deletable=0;editable=0;locked=1;connectable=0;" edge="1" parent="1" source="6xQymBcZwdzct-Tc2yqY-335" target="6xQymBcZwdzct-Tc2yqY-336">
          <mxGeometry width="100" height="100" relative="1" as="geometry">
            <mxPoint x="1340" y="290" as="sourcePoint" />
            <mxPoint x="1470" y="290" as="targetPoint" />
            <Array as="points">
              <mxPoint x="1340" y="260" />
            </Array>
          </mxGeometry>
        </mxCell>
        <mxCell id="6xQymBcZwdzct-Tc2yqY-342" value="" style="edgeStyle=elbowEdgeStyle;elbow=vertical;rounded=0;fontColor=#000000;endArrow=none;endFill=0;strokeWidth=8;strokeColor=#23445D;entryX=0;entryY=0.5;entryDx=0;entryDy=0;exitX=0;exitY=0.5;exitDx=0;exitDy=0;movable=0;resizable=0;rotatable=0;deletable=0;editable=0;locked=1;connectable=0;" edge="1" parent="1" source="6xQymBcZwdzct-Tc2yqY-336" target="6xQymBcZwdzct-Tc2yqY-337">
          <mxGeometry width="100" height="100" relative="1" as="geometry">
            <mxPoint x="1400" y="440" as="sourcePoint" />
            <mxPoint x="1370" y="660" as="targetPoint" />
            <Array as="points">
              <mxPoint x="1340" y="360" />
            </Array>
          </mxGeometry>
        </mxCell>
        <mxCell id="6xQymBcZwdzct-Tc2yqY-343" value="" style="edgeStyle=elbowEdgeStyle;elbow=vertical;rounded=0;fontColor=#000000;endArrow=none;endFill=0;strokeWidth=8;strokeColor=#23445D;entryX=0;entryY=0.5;entryDx=0;entryDy=0;exitX=0;exitY=0.5;exitDx=0;exitDy=0;movable=0;resizable=0;rotatable=0;deletable=0;editable=0;locked=1;connectable=0;" edge="1" parent="1" source="6xQymBcZwdzct-Tc2yqY-338" target="6xQymBcZwdzct-Tc2yqY-337">
          <mxGeometry width="100" height="100" relative="1" as="geometry">
            <mxPoint x="1500" y="220" as="sourcePoint" />
            <mxPoint x="1470" y="440" as="targetPoint" />
            <Array as="points">
              <mxPoint x="1340" y="420" />
            </Array>
          </mxGeometry>
        </mxCell>
        <mxCell id="6xQymBcZwdzct-Tc2yqY-344" value="" style="edgeStyle=elbowEdgeStyle;elbow=vertical;rounded=0;fontColor=#000000;endArrow=none;endFill=0;strokeWidth=8;strokeColor=#23445D;entryX=0;entryY=0.5;entryDx=0;entryDy=0;exitX=0;exitY=0.5;exitDx=0;exitDy=0;movable=0;resizable=0;rotatable=0;deletable=0;editable=0;locked=1;connectable=0;" edge="1" parent="1" source="6xQymBcZwdzct-Tc2yqY-338" target="6xQymBcZwdzct-Tc2yqY-339">
          <mxGeometry width="100" height="100" relative="1" as="geometry">
            <mxPoint x="1510" y="230" as="sourcePoint" />
            <mxPoint x="1480" y="450" as="targetPoint" />
            <Array as="points">
              <mxPoint x="1340" y="500" />
            </Array>
          </mxGeometry>
        </mxCell>
        <mxCell id="6xQymBcZwdzct-Tc2yqY-345" value="" style="edgeStyle=elbowEdgeStyle;elbow=vertical;rounded=0;fontColor=#000000;endArrow=none;endFill=0;strokeWidth=8;strokeColor=#23445D;entryX=0;entryY=0.5;entryDx=0;entryDy=0;exitX=0;exitY=0.5;exitDx=0;exitDy=0;movable=0;resizable=0;rotatable=0;deletable=0;editable=0;locked=1;connectable=0;" edge="1" parent="1" source="6xQymBcZwdzct-Tc2yqY-339" target="6xQymBcZwdzct-Tc2yqY-340">
          <mxGeometry width="100" height="100" relative="1" as="geometry">
            <mxPoint x="1520" y="240" as="sourcePoint" />
            <mxPoint x="1490" y="460" as="targetPoint" />
            <Array as="points">
              <mxPoint x="1340" y="580" />
            </Array>
          </mxGeometry>
        </mxCell>
        <mxCell id="6xQymBcZwdzct-Tc2yqY-346" value="QUẢN LÍ &#xa;NHẬP HÀNG" style="whiteSpace=wrap;rounded=1;fillColor=#F2931E;strokeColor=none;shadow=1;fontColor=#FFFFFF;fontStyle=1;fontSize=14;movable=0;resizable=0;rotatable=0;deletable=0;editable=0;locked=1;connectable=0;" vertex="1" parent="1">
          <mxGeometry x="1560" y="169.99999999999977" width="140" height="60" as="geometry" />
        </mxCell>
        <mxCell id="6xQymBcZwdzct-Tc2yqY-347" value="THÊM PHIẾU NHẬP" style="whiteSpace=wrap;rounded=1;fillColor=#999999;strokeColor=none;shadow=1;fontColor=#FFFFFF;fontStyle=0;movable=0;resizable=0;rotatable=0;deletable=0;editable=0;locked=1;connectable=0;" vertex="1" parent="1">
          <mxGeometry x="1560" y="280.0000000000001" width="120" height="60" as="geometry" />
        </mxCell>
        <mxCell id="6xQymBcZwdzct-Tc2yqY-348" value="XEM THÔNG TIN&#xa;PHIẾU NHẬP" style="whiteSpace=wrap;rounded=1;fillColor=#999999;strokeColor=none;shadow=1;fontColor=#FFFFFF;fontStyle=0;movable=0;resizable=0;rotatable=0;deletable=0;editable=0;locked=1;connectable=0;" vertex="1" parent="1">
          <mxGeometry x="1560" y="360.0000000000001" width="120" height="60" as="geometry" />
        </mxCell>
        <mxCell id="6xQymBcZwdzct-Tc2yqY-349" value="XUẤT PHIẾU NHẬP" style="whiteSpace=wrap;rounded=1;fillColor=#999999;strokeColor=none;shadow=1;fontColor=#FFFFFF;fontStyle=0;movable=0;resizable=0;rotatable=0;deletable=0;editable=0;locked=1;connectable=0;" vertex="1" parent="1">
          <mxGeometry x="1560" y="440.0000000000001" width="120" height="60" as="geometry" />
        </mxCell>
        <mxCell id="6xQymBcZwdzct-Tc2yqY-352" value="" style="edgeStyle=elbowEdgeStyle;elbow=vertical;rounded=0;fontColor=#000000;endArrow=none;endFill=0;strokeWidth=8;strokeColor=#23445D;entryX=0;entryY=0.5;entryDx=0;entryDy=0;exitX=0;exitY=0.5;exitDx=0;exitDy=0;movable=0;resizable=0;rotatable=0;deletable=0;editable=0;locked=1;connectable=0;" edge="1" parent="1" source="6xQymBcZwdzct-Tc2yqY-346" target="6xQymBcZwdzct-Tc2yqY-347">
          <mxGeometry width="100" height="100" relative="1" as="geometry">
            <mxPoint x="1564" y="290" as="sourcePoint" />
            <mxPoint x="1694" y="290" as="targetPoint" />
            <Array as="points">
              <mxPoint x="1540" y="260" />
            </Array>
          </mxGeometry>
        </mxCell>
        <mxCell id="6xQymBcZwdzct-Tc2yqY-353" value="" style="edgeStyle=elbowEdgeStyle;elbow=vertical;rounded=0;fontColor=#000000;endArrow=none;endFill=0;strokeWidth=8;strokeColor=#23445D;entryX=0;entryY=0.5;entryDx=0;entryDy=0;exitX=0;exitY=0.5;exitDx=0;exitDy=0;movable=0;resizable=0;rotatable=0;deletable=0;editable=0;locked=1;connectable=0;" edge="1" parent="1" source="6xQymBcZwdzct-Tc2yqY-347" target="6xQymBcZwdzct-Tc2yqY-348">
          <mxGeometry width="100" height="100" relative="1" as="geometry">
            <mxPoint x="1624" y="440" as="sourcePoint" />
            <mxPoint x="1594" y="660" as="targetPoint" />
            <Array as="points">
              <mxPoint x="1540" y="340" />
            </Array>
          </mxGeometry>
        </mxCell>
        <mxCell id="6xQymBcZwdzct-Tc2yqY-354" value="" style="edgeStyle=elbowEdgeStyle;elbow=vertical;rounded=0;fontColor=#000000;endArrow=none;endFill=0;strokeWidth=8;strokeColor=#23445D;entryX=0;entryY=0.5;entryDx=0;entryDy=0;exitX=0;exitY=0.5;exitDx=0;exitDy=0;movable=0;resizable=0;rotatable=0;deletable=0;editable=0;locked=1;connectable=0;" edge="1" parent="1" source="6xQymBcZwdzct-Tc2yqY-349" target="6xQymBcZwdzct-Tc2yqY-348">
          <mxGeometry width="100" height="100" relative="1" as="geometry">
            <mxPoint x="1724" y="220" as="sourcePoint" />
            <mxPoint x="1694" y="440" as="targetPoint" />
            <Array as="points">
              <mxPoint x="1540" y="420" />
            </Array>
          </mxGeometry>
        </mxCell>
        <mxCell id="6xQymBcZwdzct-Tc2yqY-357" value="QUẢN LÍ &#xa;XUẤT HÀNG" style="whiteSpace=wrap;rounded=1;fillColor=#F2931E;strokeColor=none;shadow=1;fontColor=#FFFFFF;fontStyle=1;fontSize=14;movable=0;resizable=0;rotatable=0;deletable=0;editable=0;locked=1;connectable=0;" vertex="1" parent="1">
          <mxGeometry x="1760" y="169.99999999999977" width="140" height="60" as="geometry" />
        </mxCell>
        <mxCell id="6xQymBcZwdzct-Tc2yqY-358" value="THÊM PHIẾU XUẤT" style="whiteSpace=wrap;rounded=1;fillColor=#999999;strokeColor=none;shadow=1;fontColor=#FFFFFF;fontStyle=0;movable=0;resizable=0;rotatable=0;deletable=0;editable=0;locked=1;connectable=0;" vertex="1" parent="1">
          <mxGeometry x="1760" y="280.0000000000001" width="120" height="60" as="geometry" />
        </mxCell>
        <mxCell id="6xQymBcZwdzct-Tc2yqY-359" value="XEM THÔNG TIN&#xa; PHIẾU XUẤT" style="whiteSpace=wrap;rounded=1;fillColor=#999999;strokeColor=none;shadow=1;fontColor=#FFFFFF;fontStyle=0;movable=0;resizable=0;rotatable=0;deletable=0;editable=0;locked=1;connectable=0;" vertex="1" parent="1">
          <mxGeometry x="1760" y="360.0000000000001" width="120" height="60" as="geometry" />
        </mxCell>
        <mxCell id="6xQymBcZwdzct-Tc2yqY-360" value="XUẤT PHIẾU XUẤT" style="whiteSpace=wrap;rounded=1;fillColor=#999999;strokeColor=none;shadow=1;fontColor=#FFFFFF;fontStyle=0;movable=0;resizable=0;rotatable=0;deletable=0;editable=0;locked=1;connectable=0;" vertex="1" parent="1">
          <mxGeometry x="1760" y="440.0000000000001" width="120" height="60" as="geometry" />
        </mxCell>
        <mxCell id="6xQymBcZwdzct-Tc2yqY-363" value="" style="edgeStyle=elbowEdgeStyle;elbow=vertical;rounded=0;fontColor=#000000;endArrow=none;endFill=0;strokeWidth=8;strokeColor=#23445D;entryX=0;entryY=0.5;entryDx=0;entryDy=0;exitX=0;exitY=0.5;exitDx=0;exitDy=0;movable=0;resizable=0;rotatable=0;deletable=0;editable=0;locked=1;connectable=0;" edge="1" parent="1" source="6xQymBcZwdzct-Tc2yqY-357" target="6xQymBcZwdzct-Tc2yqY-358">
          <mxGeometry width="100" height="100" relative="1" as="geometry">
            <mxPoint x="1780" y="290" as="sourcePoint" />
            <mxPoint x="1910" y="290" as="targetPoint" />
            <Array as="points">
              <mxPoint x="1740" y="240" />
            </Array>
          </mxGeometry>
        </mxCell>
        <mxCell id="6xQymBcZwdzct-Tc2yqY-364" value="" style="edgeStyle=elbowEdgeStyle;elbow=vertical;rounded=0;fontColor=#000000;endArrow=none;endFill=0;strokeWidth=8;strokeColor=#23445D;entryX=0;entryY=0.5;entryDx=0;entryDy=0;exitX=0;exitY=0.5;exitDx=0;exitDy=0;movable=0;resizable=0;rotatable=0;deletable=0;editable=0;locked=1;connectable=0;" edge="1" parent="1" source="6xQymBcZwdzct-Tc2yqY-358" target="6xQymBcZwdzct-Tc2yqY-359">
          <mxGeometry width="100" height="100" relative="1" as="geometry">
            <mxPoint x="1840" y="440" as="sourcePoint" />
            <mxPoint x="1810" y="660" as="targetPoint" />
            <Array as="points">
              <mxPoint x="1740" y="360" />
            </Array>
          </mxGeometry>
        </mxCell>
        <mxCell id="6xQymBcZwdzct-Tc2yqY-365" value="" style="edgeStyle=elbowEdgeStyle;elbow=vertical;rounded=0;fontColor=#000000;endArrow=none;endFill=0;strokeWidth=8;strokeColor=#23445D;entryX=0;entryY=0.5;entryDx=0;entryDy=0;exitX=0;exitY=0.5;exitDx=0;exitDy=0;movable=0;resizable=0;rotatable=0;deletable=0;editable=0;locked=1;connectable=0;" edge="1" parent="1" source="6xQymBcZwdzct-Tc2yqY-360" target="6xQymBcZwdzct-Tc2yqY-359">
          <mxGeometry width="100" height="100" relative="1" as="geometry">
            <mxPoint x="1940" y="220" as="sourcePoint" />
            <mxPoint x="1910" y="440" as="targetPoint" />
            <Array as="points">
              <mxPoint x="1740" y="430" />
            </Array>
          </mxGeometry>
        </mxCell>
        <mxCell id="6xQymBcZwdzct-Tc2yqY-368" value="QUẢN LÍ &#xa;QUYỀN" style="whiteSpace=wrap;rounded=1;fillColor=#F2931E;strokeColor=none;shadow=1;fontColor=#FFFFFF;fontStyle=1;fontSize=14;movable=0;resizable=0;rotatable=0;deletable=0;editable=0;locked=1;connectable=0;" vertex="1" parent="1">
          <mxGeometry x="1960" y="169.99999999999977" width="140" height="60" as="geometry" />
        </mxCell>
        <mxCell id="6xQymBcZwdzct-Tc2yqY-369" value="THÊM PHÂN QUYỀN" style="whiteSpace=wrap;rounded=1;fillColor=#999999;strokeColor=none;shadow=1;fontColor=#FFFFFF;fontStyle=0;movable=0;resizable=0;rotatable=0;deletable=0;editable=0;locked=1;connectable=0;" vertex="1" parent="1">
          <mxGeometry x="1960" y="280.0000000000001" width="120" height="60" as="geometry" />
        </mxCell>
        <mxCell id="6xQymBcZwdzct-Tc2yqY-370" value="XÓA PHÂN QUYỀN" style="whiteSpace=wrap;rounded=1;fillColor=#999999;strokeColor=none;shadow=1;fontColor=#FFFFFF;fontStyle=0;movable=0;resizable=0;rotatable=0;deletable=0;editable=0;locked=1;connectable=0;" vertex="1" parent="1">
          <mxGeometry x="1960" y="360.0000000000001" width="120" height="60" as="geometry" />
        </mxCell>
        <mxCell id="6xQymBcZwdzct-Tc2yqY-371" value="SỬA PHÂN QUYỀN" style="whiteSpace=wrap;rounded=1;fillColor=#999999;strokeColor=none;shadow=1;fontColor=#FFFFFF;fontStyle=0;movable=0;resizable=0;rotatable=0;deletable=0;editable=0;locked=1;connectable=0;" vertex="1" parent="1">
          <mxGeometry x="1960" y="440.0000000000001" width="120" height="60" as="geometry" />
        </mxCell>
        <mxCell id="6xQymBcZwdzct-Tc2yqY-372" value="TÌM KIẾM PHÂN QUYỀN" style="whiteSpace=wrap;rounded=1;fillColor=#999999;strokeColor=none;shadow=1;fontColor=#FFFFFF;fontStyle=0;movable=0;resizable=0;rotatable=0;deletable=0;editable=0;locked=1;connectable=0;" vertex="1" parent="1">
          <mxGeometry x="1960" y="520.0000000000001" width="120" height="60" as="geometry" />
        </mxCell>
        <mxCell id="6xQymBcZwdzct-Tc2yqY-373" value="XEM PHÂN QUYỀN" style="whiteSpace=wrap;rounded=1;fillColor=#999999;strokeColor=none;shadow=1;fontColor=#FFFFFF;fontStyle=0;movable=0;resizable=0;rotatable=0;deletable=0;editable=0;locked=1;connectable=0;" vertex="1" parent="1">
          <mxGeometry x="1960.0000000000005" y="600.0000000000001" width="120" height="60" as="geometry" />
        </mxCell>
        <mxCell id="6xQymBcZwdzct-Tc2yqY-374" value="" style="edgeStyle=elbowEdgeStyle;elbow=vertical;rounded=0;fontColor=#000000;endArrow=none;endFill=0;strokeWidth=8;strokeColor=#23445D;entryX=0;entryY=0.5;entryDx=0;entryDy=0;exitX=0;exitY=0.5;exitDx=0;exitDy=0;movable=0;resizable=0;rotatable=0;deletable=0;editable=0;locked=1;connectable=0;" edge="1" parent="1" source="6xQymBcZwdzct-Tc2yqY-368" target="6xQymBcZwdzct-Tc2yqY-369">
          <mxGeometry width="100" height="100" relative="1" as="geometry">
            <mxPoint x="2000" y="290" as="sourcePoint" />
            <mxPoint x="2130" y="290" as="targetPoint" />
            <Array as="points">
              <mxPoint x="1940" y="240" />
            </Array>
          </mxGeometry>
        </mxCell>
        <mxCell id="6xQymBcZwdzct-Tc2yqY-375" value="" style="edgeStyle=elbowEdgeStyle;elbow=vertical;rounded=0;fontColor=#000000;endArrow=none;endFill=0;strokeWidth=8;strokeColor=#23445D;entryX=0;entryY=0.5;entryDx=0;entryDy=0;exitX=0;exitY=0.5;exitDx=0;exitDy=0;movable=0;resizable=0;rotatable=0;deletable=0;editable=0;locked=1;connectable=0;" edge="1" parent="1" source="6xQymBcZwdzct-Tc2yqY-369" target="6xQymBcZwdzct-Tc2yqY-370">
          <mxGeometry width="100" height="100" relative="1" as="geometry">
            <mxPoint x="2060" y="440" as="sourcePoint" />
            <mxPoint x="2030" y="660" as="targetPoint" />
            <Array as="points">
              <mxPoint x="1940" y="350" />
            </Array>
          </mxGeometry>
        </mxCell>
        <mxCell id="6xQymBcZwdzct-Tc2yqY-376" value="" style="edgeStyle=elbowEdgeStyle;elbow=vertical;rounded=0;fontColor=#000000;endArrow=none;endFill=0;strokeWidth=8;strokeColor=#23445D;entryX=0;entryY=0.5;entryDx=0;entryDy=0;exitX=0;exitY=0.5;exitDx=0;exitDy=0;movable=0;resizable=0;rotatable=0;deletable=0;editable=0;locked=1;connectable=0;" edge="1" parent="1" source="6xQymBcZwdzct-Tc2yqY-371" target="6xQymBcZwdzct-Tc2yqY-370">
          <mxGeometry width="100" height="100" relative="1" as="geometry">
            <mxPoint x="2160" y="220" as="sourcePoint" />
            <mxPoint x="2130" y="440" as="targetPoint" />
            <Array as="points">
              <mxPoint x="1940" y="430" />
            </Array>
          </mxGeometry>
        </mxCell>
        <mxCell id="6xQymBcZwdzct-Tc2yqY-377" value="" style="edgeStyle=elbowEdgeStyle;elbow=vertical;rounded=0;fontColor=#000000;endArrow=none;endFill=0;strokeWidth=8;strokeColor=#23445D;entryX=0;entryY=0.5;entryDx=0;entryDy=0;exitX=0;exitY=0.5;exitDx=0;exitDy=0;movable=0;resizable=0;rotatable=0;deletable=0;editable=0;locked=1;connectable=0;" edge="1" parent="1" source="6xQymBcZwdzct-Tc2yqY-371" target="6xQymBcZwdzct-Tc2yqY-372">
          <mxGeometry width="100" height="100" relative="1" as="geometry">
            <mxPoint x="2170" y="230" as="sourcePoint" />
            <mxPoint x="2140" y="450" as="targetPoint" />
            <Array as="points">
              <mxPoint x="1940" y="510" />
            </Array>
          </mxGeometry>
        </mxCell>
        <mxCell id="6xQymBcZwdzct-Tc2yqY-378" value="" style="edgeStyle=elbowEdgeStyle;elbow=vertical;rounded=0;fontColor=#000000;endArrow=none;endFill=0;strokeWidth=8;strokeColor=#23445D;entryX=0;entryY=0.5;entryDx=0;entryDy=0;exitX=0;exitY=0.5;exitDx=0;exitDy=0;movable=0;resizable=0;rotatable=0;deletable=0;editable=0;locked=1;connectable=0;" edge="1" parent="1" source="6xQymBcZwdzct-Tc2yqY-372" target="6xQymBcZwdzct-Tc2yqY-373">
          <mxGeometry width="100" height="100" relative="1" as="geometry">
            <mxPoint x="2180" y="240" as="sourcePoint" />
            <mxPoint x="2150" y="460" as="targetPoint" />
            <Array as="points">
              <mxPoint x="1940" y="590" />
            </Array>
          </mxGeometry>
        </mxCell>
        <mxCell id="6xQymBcZwdzct-Tc2yqY-379" value="QUẢN LÍ&#xa;BẢO HÀNH" style="whiteSpace=wrap;rounded=1;fillColor=#F2931E;strokeColor=none;shadow=1;fontColor=#FFFFFF;fontStyle=1;fontSize=14;movable=0;resizable=0;rotatable=0;deletable=0;editable=0;locked=1;connectable=0;" vertex="1" parent="1">
          <mxGeometry x="2160" y="170" width="140" height="60" as="geometry" />
        </mxCell>
        <mxCell id="6xQymBcZwdzct-Tc2yqY-380" value="THÊM PHIẾU&#xa;BẢO HÀNH" style="whiteSpace=wrap;rounded=1;fillColor=#999999;strokeColor=none;shadow=1;fontColor=#FFFFFF;fontStyle=0;movable=0;resizable=0;rotatable=0;deletable=0;editable=0;locked=1;connectable=0;" vertex="1" parent="1">
          <mxGeometry x="2160" y="280.0000000000001" width="120" height="60" as="geometry" />
        </mxCell>
        <mxCell id="6xQymBcZwdzct-Tc2yqY-381" value="XEM THÔNG TIN PHIẾU BẢO HÀNH" style="whiteSpace=wrap;rounded=1;fillColor=#999999;strokeColor=none;shadow=1;fontColor=#FFFFFF;fontStyle=0;movable=0;resizable=0;rotatable=0;deletable=0;editable=0;locked=1;connectable=0;" vertex="1" parent="1">
          <mxGeometry x="2160" y="360.0000000000001" width="120" height="60" as="geometry" />
        </mxCell>
        <mxCell id="6xQymBcZwdzct-Tc2yqY-382" value="XUẤT PHIẾU BẢO HÀNH" style="whiteSpace=wrap;rounded=1;fillColor=#999999;strokeColor=none;shadow=1;fontColor=#FFFFFF;fontStyle=0;movable=0;resizable=0;rotatable=0;deletable=0;editable=0;locked=1;connectable=0;" vertex="1" parent="1">
          <mxGeometry x="2160" y="440.0000000000001" width="120" height="60" as="geometry" />
        </mxCell>
        <mxCell id="6xQymBcZwdzct-Tc2yqY-385" value="" style="edgeStyle=elbowEdgeStyle;elbow=vertical;rounded=0;fontColor=#000000;endArrow=none;endFill=0;strokeWidth=8;strokeColor=#23445D;entryX=0;entryY=0.5;entryDx=0;entryDy=0;exitX=0;exitY=0.5;exitDx=0;exitDy=0;movable=0;resizable=0;rotatable=0;deletable=0;editable=0;locked=1;connectable=0;" edge="1" parent="1" source="6xQymBcZwdzct-Tc2yqY-379" target="6xQymBcZwdzct-Tc2yqY-380">
          <mxGeometry width="100" height="100" relative="1" as="geometry">
            <mxPoint x="2220" y="290" as="sourcePoint" />
            <mxPoint x="2350" y="290" as="targetPoint" />
            <Array as="points">
              <mxPoint x="2140" y="270" />
              <mxPoint x="2320" y="310" />
            </Array>
          </mxGeometry>
        </mxCell>
        <mxCell id="6xQymBcZwdzct-Tc2yqY-386" value="" style="edgeStyle=elbowEdgeStyle;elbow=vertical;rounded=0;fontColor=#000000;endArrow=none;endFill=0;strokeWidth=8;strokeColor=#23445D;entryX=0;entryY=0.5;entryDx=0;entryDy=0;exitX=0;exitY=0.5;exitDx=0;exitDy=0;movable=0;resizable=0;rotatable=0;deletable=0;editable=0;locked=1;connectable=0;" edge="1" parent="1" source="6xQymBcZwdzct-Tc2yqY-380" target="6xQymBcZwdzct-Tc2yqY-381">
          <mxGeometry width="100" height="100" relative="1" as="geometry">
            <mxPoint x="2280" y="440" as="sourcePoint" />
            <mxPoint x="2250" y="660" as="targetPoint" />
            <Array as="points">
              <mxPoint x="2140" y="350" />
            </Array>
          </mxGeometry>
        </mxCell>
        <mxCell id="6xQymBcZwdzct-Tc2yqY-387" value="" style="edgeStyle=elbowEdgeStyle;elbow=vertical;rounded=0;fontColor=#000000;endArrow=none;endFill=0;strokeWidth=8;strokeColor=#23445D;entryX=0;entryY=0.5;entryDx=0;entryDy=0;exitX=0;exitY=0.5;exitDx=0;exitDy=0;movable=0;resizable=0;rotatable=0;deletable=0;editable=0;locked=1;connectable=0;" edge="1" parent="1" source="6xQymBcZwdzct-Tc2yqY-382" target="6xQymBcZwdzct-Tc2yqY-381">
          <mxGeometry width="100" height="100" relative="1" as="geometry">
            <mxPoint x="2380" y="220" as="sourcePoint" />
            <mxPoint x="2350" y="440" as="targetPoint" />
            <Array as="points">
              <mxPoint x="2140" y="410" />
            </Array>
          </mxGeometry>
        </mxCell>
        <mxCell id="6xQymBcZwdzct-Tc2yqY-390" value="QUẢN LÍ&#xa;THỐNG KÊ" style="whiteSpace=wrap;rounded=1;fillColor=#F2931E;strokeColor=none;shadow=1;fontColor=#FFFFFF;fontStyle=1;fontSize=14;movable=0;resizable=0;rotatable=0;deletable=0;editable=0;locked=1;connectable=0;" vertex="1" parent="1">
          <mxGeometry x="2360" y="170" width="140" height="60" as="geometry" />
        </mxCell>
        <mxCell id="6xQymBcZwdzct-Tc2yqY-391" value="THỐNG KÊ&#xa;DOANH THU" style="whiteSpace=wrap;rounded=1;fillColor=#999999;strokeColor=none;shadow=1;fontColor=#FFFFFF;fontStyle=0;movable=0;resizable=0;rotatable=0;deletable=0;editable=0;locked=1;connectable=0;" vertex="1" parent="1">
          <mxGeometry x="2360" y="280.0000000000001" width="120" height="60" as="geometry" />
        </mxCell>
        <mxCell id="6xQymBcZwdzct-Tc2yqY-392" value="THỐNG KÊ&#xa;SẢN PHẨM" style="whiteSpace=wrap;rounded=1;fillColor=#999999;strokeColor=none;shadow=1;fontColor=#FFFFFF;fontStyle=0;movable=0;resizable=0;rotatable=0;deletable=0;editable=0;locked=1;connectable=0;" vertex="1" parent="1">
          <mxGeometry x="2360" y="360.0000000000001" width="120" height="60" as="geometry" />
        </mxCell>
        <mxCell id="6xQymBcZwdzct-Tc2yqY-396" value="" style="edgeStyle=elbowEdgeStyle;elbow=vertical;rounded=0;fontColor=#000000;endArrow=none;endFill=0;strokeWidth=8;strokeColor=#23445D;entryX=0;entryY=0.5;entryDx=0;entryDy=0;exitX=0;exitY=0.5;exitDx=0;exitDy=0;movable=0;resizable=0;rotatable=0;deletable=0;editable=0;locked=1;connectable=0;" edge="1" parent="1" source="6xQymBcZwdzct-Tc2yqY-390" target="6xQymBcZwdzct-Tc2yqY-391">
          <mxGeometry width="100" height="100" relative="1" as="geometry">
            <mxPoint x="2440" y="290" as="sourcePoint" />
            <mxPoint x="2570" y="290" as="targetPoint" />
            <Array as="points">
              <mxPoint x="2340" y="270" />
              <mxPoint x="2540" y="310" />
            </Array>
          </mxGeometry>
        </mxCell>
        <mxCell id="6xQymBcZwdzct-Tc2yqY-397" value="" style="edgeStyle=elbowEdgeStyle;elbow=vertical;rounded=0;fontColor=#000000;endArrow=none;endFill=0;strokeWidth=8;strokeColor=#23445D;entryX=0;entryY=0.5;entryDx=0;entryDy=0;exitX=0;exitY=0.5;exitDx=0;exitDy=0;movable=0;resizable=0;rotatable=0;deletable=0;editable=0;locked=1;connectable=0;" edge="1" parent="1" source="6xQymBcZwdzct-Tc2yqY-391" target="6xQymBcZwdzct-Tc2yqY-392">
          <mxGeometry width="100" height="100" relative="1" as="geometry">
            <mxPoint x="2500" y="440" as="sourcePoint" />
            <mxPoint x="2470" y="660" as="targetPoint" />
            <Array as="points">
              <mxPoint x="2340" y="360" />
            </Array>
          </mxGeometry>
        </mxCell>
        <mxCell id="CKQPQiHgZOZHJVkjbXUl-234" style="edgeStyle=orthogonalEdgeStyle;rounded=0;orthogonalLoop=1;jettySize=auto;html=1;exitX=0.5;exitY=1;exitDx=0;exitDy=0;movable=0;resizable=0;rotatable=0;deletable=0;editable=0;locked=1;connectable=0;" edge="1" parent="1" source="6xQymBcZwdzct-Tc2yqY-258" target="6xQymBcZwdzct-Tc2yqY-258">
          <mxGeometry relative="1" as="geometry" />
        </mxCell>
        <mxCell id="CKQPQiHgZOZHJVkjbXUl-235" value="" style="edgeStyle=elbowEdgeStyle;elbow=vertical;rounded=0;fontColor=#000000;endArrow=none;endFill=0;strokeWidth=8;strokeColor=#23445D;entryX=0.5;entryY=0;entryDx=0;entryDy=0;exitX=0.5;exitY=1;exitDx=0;exitDy=0;movable=0;resizable=0;rotatable=0;deletable=0;editable=0;locked=1;connectable=0;" edge="1" parent="1" source="2" target="6xQymBcZwdzct-Tc2yqY-269">
          <mxGeometry width="100" height="100" relative="1" as="geometry">
            <mxPoint x="1125" y="120" as="sourcePoint" />
            <mxPoint x="460" y="180" as="targetPoint" />
          </mxGeometry>
        </mxCell>
        <mxCell id="CKQPQiHgZOZHJVkjbXUl-236" value="" style="edgeStyle=elbowEdgeStyle;elbow=vertical;rounded=0;fontColor=#000000;endArrow=none;endFill=0;strokeWidth=8;strokeColor=#23445D;entryX=0.5;entryY=0;entryDx=0;entryDy=0;exitX=0.5;exitY=1;exitDx=0;exitDy=0;movable=0;resizable=0;rotatable=0;deletable=0;editable=0;locked=1;connectable=0;" edge="1" parent="1" source="2" target="6xQymBcZwdzct-Tc2yqY-291">
          <mxGeometry width="100" height="100" relative="1" as="geometry">
            <mxPoint x="1125" y="120" as="sourcePoint" />
            <mxPoint x="680" y="180" as="targetPoint" />
          </mxGeometry>
        </mxCell>
        <mxCell id="CKQPQiHgZOZHJVkjbXUl-237" value="" style="edgeStyle=elbowEdgeStyle;elbow=vertical;rounded=0;fontColor=#000000;endArrow=none;endFill=0;strokeWidth=8;strokeColor=#23445D;entryX=0.5;entryY=0;entryDx=0;entryDy=0;exitX=0.5;exitY=1;exitDx=0;exitDy=0;movable=0;resizable=0;rotatable=0;deletable=0;editable=0;locked=1;connectable=0;" edge="1" parent="1" source="2" target="6xQymBcZwdzct-Tc2yqY-335">
          <mxGeometry width="100" height="100" relative="1" as="geometry">
            <mxPoint x="1135" y="130" as="sourcePoint" />
            <mxPoint x="690" y="190" as="targetPoint" />
          </mxGeometry>
        </mxCell>
        <mxCell id="CKQPQiHgZOZHJVkjbXUl-238" value="" style="edgeStyle=elbowEdgeStyle;elbow=vertical;rounded=0;fontColor=#000000;endArrow=none;endFill=0;strokeWidth=8;strokeColor=#23445D;entryX=0.5;entryY=0;entryDx=0;entryDy=0;exitX=0.5;exitY=1;exitDx=0;exitDy=0;movable=0;resizable=0;rotatable=0;deletable=0;editable=0;locked=1;connectable=0;" edge="1" parent="1" source="2" target="6xQymBcZwdzct-Tc2yqY-357">
          <mxGeometry width="100" height="100" relative="1" as="geometry">
            <mxPoint x="1145" y="140" as="sourcePoint" />
            <mxPoint x="700" y="200" as="targetPoint" />
          </mxGeometry>
        </mxCell>
        <mxCell id="CKQPQiHgZOZHJVkjbXUl-239" value="" style="edgeStyle=elbowEdgeStyle;elbow=vertical;rounded=0;fontColor=#000000;endArrow=none;endFill=0;strokeWidth=8;strokeColor=#23445D;entryX=0.5;entryY=0;entryDx=0;entryDy=0;exitX=0.5;exitY=1;exitDx=0;exitDy=0;movable=0;resizable=0;rotatable=0;deletable=0;editable=0;locked=1;connectable=0;" edge="1" parent="1" source="2" target="6xQymBcZwdzct-Tc2yqY-379">
          <mxGeometry width="100" height="100" relative="1" as="geometry">
            <mxPoint x="1155" y="150" as="sourcePoint" />
            <mxPoint x="710" y="210" as="targetPoint" />
          </mxGeometry>
        </mxCell>
        <mxCell id="CKQPQiHgZOZHJVkjbXUl-240" value="" style="edgeStyle=elbowEdgeStyle;elbow=vertical;rounded=0;fontColor=#000000;endArrow=none;endFill=0;strokeWidth=8;strokeColor=#23445D;entryX=0.5;entryY=0;entryDx=0;entryDy=0;exitX=0.5;exitY=1;exitDx=0;exitDy=0;movable=0;resizable=0;rotatable=0;deletable=0;editable=0;locked=1;connectable=0;" edge="1" parent="1" source="2" target="6xQymBcZwdzct-Tc2yqY-390">
          <mxGeometry width="100" height="100" relative="1" as="geometry">
            <mxPoint x="1165" y="160" as="sourcePoint" />
            <mxPoint x="720" y="220" as="targetPoint" />
          </mxGeometry>
        </mxCell>
        <mxCell id="CKQPQiHgZOZHJVkjbXUl-241" value="QUẢN LÍ&#xa;PHÂN LOẠI" style="whiteSpace=wrap;rounded=1;fillColor=#999999;strokeColor=none;shadow=1;fontColor=#FFFFFF;fontStyle=0;movable=0;resizable=0;rotatable=0;deletable=0;editable=0;locked=1;connectable=0;" vertex="1" parent="1">
          <mxGeometry x="560.0000000000003" y="680.0000000000001" width="120" height="60" as="geometry" />
        </mxCell>
        <mxCell id="CKQPQiHgZOZHJVkjbXUl-242" value="" style="edgeStyle=elbowEdgeStyle;elbow=vertical;rounded=0;fontColor=#000000;endArrow=none;endFill=0;strokeWidth=8;strokeColor=#23445D;entryX=0;entryY=0.5;entryDx=0;entryDy=0;exitX=0;exitY=0.5;exitDx=0;exitDy=0;movable=0;resizable=0;rotatable=0;deletable=0;editable=0;locked=1;connectable=0;" edge="1" parent="1" source="6xQymBcZwdzct-Tc2yqY-274" target="CKQPQiHgZOZHJVkjbXUl-241">
          <mxGeometry width="100" height="100" relative="1" as="geometry">
            <mxPoint x="610" y="560" as="sourcePoint" />
            <mxPoint x="610" y="640" as="targetPoint" />
            <Array as="points">
              <mxPoint x="540" y="660" />
            </Array>
          </mxGeometry>
        </mxCell>
        <mxCell id="mzro9AZb5KnyIlZd6vK3-234" value="THAY ĐỔI TÌNH TRANG BẢO HÀNH" style="whiteSpace=wrap;rounded=1;fillColor=#999999;strokeColor=none;shadow=1;fontColor=#FFFFFF;fontStyle=0;movable=0;resizable=0;rotatable=0;deletable=0;editable=0;locked=1;connectable=0;" vertex="1" parent="1">
          <mxGeometry x="2160" y="520.0000000000001" width="120" height="60" as="geometry" />
        </mxCell>
        <mxCell id="mzro9AZb5KnyIlZd6vK3-235" value="" style="edgeStyle=elbowEdgeStyle;elbow=vertical;rounded=0;fontColor=#000000;endArrow=none;endFill=0;strokeWidth=8;strokeColor=#23445D;entryX=0;entryY=0.5;entryDx=0;entryDy=0;exitX=0;exitY=0.5;exitDx=0;exitDy=0;movable=0;resizable=0;rotatable=0;deletable=0;editable=0;locked=1;connectable=0;" edge="1" parent="1" source="mzro9AZb5KnyIlZd6vK3-234" target="6xQymBcZwdzct-Tc2yqY-382">
          <mxGeometry width="100" height="100" relative="1" as="geometry">
            <mxPoint x="2170" y="480" as="sourcePoint" />
            <mxPoint x="2170" y="400" as="targetPoint" />
            <Array as="points">
              <mxPoint x="2140" y="510" />
            </Array>
          </mxGeometry>
        </mxCell>
      </root>
    </mxGraphModel>
  </diagram>
</mxfile>
